<svg xmlns="http://www.w3.org/2000/svg" viewBox="0 0 192 192" width="192" height="192">
<rect width="192" height="192" rx="40" fill="#dc1e1e"/>
<g transform="translate(16,16) scale(0.0711)">
<path fill="#ffffff" d="M 1125.742188 443.089844 C 1133.183594 427.785156 1144.023438 414.339844 1150.667969 398.609375 C 1156.832031 414.074219 1165.175781 428.53125 1174.527344 442.292969 C 1174.792969 593.273438 1172.242188 744.304688 1175.21875 895.339844 C 1165.070312 906.179688 1155.449219 917.550781 1147.054688 929.773438 C 1142.058594 916.4375 1130.953125 906.765625 1124.839844 894.167969 C 1126.273438 743.878906 1126.0625 593.433594 1125.742188 443.089844 Z"/>
<path fill="#ffffff" d="M 1209.390625 485.339844 C 1245.582031 556.871094 1294.472656 622.765625 1358.085938 672.242188 C 1385.347656 692.96875 1414.042969 715.449219 1449.171875 719.914062 C 1484.777344 725.121094 1520.4375 736.070312 1549.347656 758.175781 C 1500.1875 752.648438 1451.085938 758.441406 1401.875 758.601562 C 1349.261719 729.054688 1301.222656 690.949219 1259.71875 646.894531 C 1259.078125 704.128906 1258.386719 761.363281 1259.292969 818.652344 C 1242.976562 829.652344 1226.503906 840.441406 1211.410156 852.984375 C 1209.230469 730.433594 1212.101562 607.835938 1209.390625 485.339844 Z"/>
<path fill="#ffffff" d="M 913.066406 693.289062 C 988.050781 643.917969 1047.996094 573.34375 1088.117188 493.3125 C 1089.289062 614.636719 1089.445312 736.121094 1089.128906 857.5 C 1075.046875 843.578125 1059.527344 831.195312 1042.203125 821.523438 C 1041.085938 763.117188 1043 704.714844 1041.191406 646.308594 C 998.625 690.898438 950.265625 730.328125 896.484375 760.515625 C 847.59375 756.582031 798.382812 755.570312 749.4375 759.238281 C 796.46875 719.859375 863.324219 727.035156 913.066406 693.289062 Z"/>
<path fill="#ffffff" d="M 755.972656 797.234375 C 826.390625 785.652344 899.886719 794.101562 966.207031 820.140625 C 1041.085938 850.589844 1102.734375 911.386719 1134.992188 985.414062 C 1174.421875 1080.59375 1175.539062 1190.652344 1138.921875 1286.949219 C 1109.589844 1358.585938 1058.253906 1423.261719 988.582031 1459.027344 C 869.964844 1522.90625 716.328125 1511.320312 606.375 1434.582031 C 550.949219 1392.652344 509.335938 1332.597656 489.195312 1266.117188 C 458.214844 1165.464844 468.84375 1051.949219 520.496094 959.90625 C 568.644531 873.496094 658.246094 812.0625 755.972656 797.234375 M 769.527344 831.671875 C 713.460938 840.121094 658.617188 869.351562 627.738281 918.03125 C 577.945312 993.492188 569.972656 1087.875 576.085938 1175.828125 C 583.101562 1260.695312 610.097656 1349.65625 675.144531 1408.328125 C 726.375 1457.167969 801.996094 1471.410156 870.339844 1461.207031 C 923.109375 1456.210938 973.59375 1428.414062 1004.578125 1385.210938 C 1040.289062 1335.203125 1058.519531 1274.460938 1063.621094 1213.613281 C 1068.933594 1145.960938 1065.640625 1076.714844 1045.390625 1011.5625 C 1027.480469 957.621094 996.976562 905.699219 949.574219 872.699219 C 898.449219 835.019531 831.808594 821.203125 769.527344 831.671875 Z"/>
<path fill="#ffffff" d="M 1363.347656 812.648438 C 1431.742188 788.253906 1506.300781 790.0625 1577.140625 800.53125 C 1632.515625 809.40625 1684.753906 830.609375 1738.484375 845.648438 C 1738.484375 899.75 1743.371094 953.6875 1746.292969 1007.683594 C 1735.507812 1008.796875 1724.773438 1009.488281 1713.984375 1009.488281 C 1708.667969 979.675781 1698.679688 950.765625 1686.191406 923.292969 C 1659.726562 873.019531 1603.820312 846.976562 1550.25 836.722656 C 1479.410156 821.097656 1401.664062 831.40625 1340.386719 871.371094 C 1278.050781 915.105469 1246.484375 990.359375 1236.601562 1063.800781 C 1224.644531 1160.363281 1233.144531 1265.214844 1288.253906 1348.277344 C 1331.992188 1416.511719 1410.75 1459.769531 1491.632812 1461.628906 C 1545.359375 1463.277344 1602.648438 1454.242188 1646.4375 1420.871094 C 1684.542969 1391.695312 1708.03125 1348.703125 1728.703125 1306.398438 C 1741.085938 1309.375 1753.46875 1312.882812 1765.53125 1317.453125 C 1747.625 1355.980469 1732.320312 1395.839844 1712.496094 1433.519531 C 1706.226562 1447.386719 1691.875 1453.765625 1678.960938 1459.824219 C 1624.332031 1486.609375 1563.164062 1497.769531 1502.6875 1499.097656 C 1424.671875 1502.339844 1345.117188 1484.058594 1278.316406 1443.082031 C 1231.125 1413.058594 1192.597656 1370.011719 1166.132812 1320.90625 C 1213.800781 1212.070312 1216.035156 1082.453125 1167.9375 973.457031 C 1208.964844 897.144531 1280.972656 838.847656 1363.347656 812.648438 Z"/>
<path fill="#ffffff" d="M 1147.265625 1361.347656 C 1155.132812 1373.09375 1163.742188 1384.308594 1173.308594 1394.777344 C 1173.359375 1545.277344 1173.414062 1695.886719 1174.316406 1846.386719 C 1166.398438 1862.699219 1157.894531 1879.546875 1147.265625 1894.375 C 1141.898438 1878.855469 1132.175781 1865.570312 1125.425781 1850.851562 C 1125.371094 1697.425781 1126.328125 1543.894531 1125.636719 1390.417969 C 1134.085938 1381.703125 1141.472656 1372.085938 1147.265625 1361.347656 Z"/>
<path fill="#ffffff" d="M 1041.832031 1471.195312 C 1059.898438 1461.523438 1075.578125 1448.238281 1088.96875 1432.828125 C 1087.746094 1554.628906 1090.085938 1676.488281 1088.117188 1798.238281 C 1078.710938 1782.5625 1072.972656 1764.917969 1062.714844 1749.773438 C 1039.707031 1711.507812 1007.871094 1679.730469 975.5625 1649.332031 C 936.980469 1616.011719 895.15625 1580.617188 842.808594 1573.496094 C 811.933594 1566.164062 778.136719 1558.882812 754.433594 1536.402344 C 803.695312 1541.027344 853.226562 1538.6875 902.222656 1532.683594 C 949.574219 1568.925781 1000.324219 1601.664062 1040.34375 1646.515625 C 1041.460938 1588.058594 1040.394531 1529.601562 1041.832031 1471.195312 Z"/>
<path fill="#ffffff" d="M 1210.824219 1483.949219 C 1210.773438 1468.167969 1209.710938 1452.332031 1211.886719 1436.652344 C 1227.40625 1449.460938 1242.234375 1463.277344 1259.664062 1473.535156 C 1259.1875 1531.355469 1259.34375 1589.171875 1259.453125 1646.992188 C 1301.222656 1601.078125 1351.496094 1562.921875 1405.96875 1533.640625 C 1453.371094 1539.113281 1501.144531 1540.496094 1548.65625 1535.765625 C 1517.300781 1562.65625 1474.253906 1568.339844 1435.460938 1578.011719 C 1399.910156 1590.183594 1369.140625 1612.929688 1340.335938 1636.523438 C 1303.71875 1668.515625 1267.742188 1702.6875 1242.816406 1744.9375 C 1231.65625 1761.78125 1222.890625 1780.117188 1211.675781 1796.910156 C 1209.816406 1692.589844 1211.144531 1588.269531 1210.824219 1483.949219 Z"/>
</g>
</svg>
